G04 #@! TF.FileFunction,Legend,Bot*
%FSLAX46Y46*%
G04 Gerber Fmt 4.6, Leading zero omitted, Abs format (unit mm)*
G04 Created by KiCad (PCBNEW (2016-03-20 BZR 6634, Git a4ba01f)-product) date 4/5/2016 10:18:16 AM*
%MOMM*%
G01*
G04 APERTURE LIST*
%ADD10C,0.100000*%
%ADD11C,0.300000*%
%ADD12C,0.150000*%
G04 APERTURE END LIST*
D10*
D11*
X159371428Y-85607143D02*
X158228571Y-85607143D01*
X158800000Y-86178571D02*
X158800000Y-85035714D01*
D12*
X146400000Y-94650000D02*
X146400000Y-93950000D01*
X145200000Y-93950000D02*
X145200000Y-94650000D01*
X156125000Y-91400000D02*
X156125000Y-93400000D01*
X154075000Y-93400000D02*
X154075000Y-91400000D01*
X142350000Y-91925000D02*
X142350000Y-92925000D01*
X140650000Y-92925000D02*
X140650000Y-91925000D01*
X140250000Y-91925000D02*
X140250000Y-92925000D01*
X138550000Y-92925000D02*
X138550000Y-91925000D01*
X138150000Y-91925000D02*
X138150000Y-92925000D01*
X136450000Y-92925000D02*
X136450000Y-91925000D01*
X136050000Y-91925000D02*
X136050000Y-92925000D01*
X134350000Y-92925000D02*
X134350000Y-91925000D01*
X133950000Y-91925000D02*
X133950000Y-92925000D01*
X132250000Y-92925000D02*
X132250000Y-91925000D01*
X153700000Y-93650000D02*
X153700000Y-92950000D01*
X152500000Y-92950000D02*
X152500000Y-93650000D01*
X143025000Y-94200000D02*
X143025000Y-95400000D01*
X144775000Y-95400000D02*
X144775000Y-94200000D01*
X143125000Y-91300000D02*
X143125000Y-92300000D01*
X144475000Y-92300000D02*
X144475000Y-91300000D01*
X152100000Y-96200000D02*
X152100000Y-95275000D01*
X146800000Y-90900000D02*
X146800000Y-91825000D01*
X152100000Y-90900000D02*
X152100000Y-91825000D01*
X146800000Y-96200000D02*
X147725000Y-96200000D01*
X146800000Y-90900000D02*
X147725000Y-90900000D01*
X152100000Y-90900000D02*
X151175000Y-90900000D01*
X152100000Y-96200000D02*
X151175000Y-96200000D01*
X161200000Y-86900000D02*
X161200000Y-94900000D01*
X156800000Y-94900000D02*
X156800000Y-86800000D01*
M02*
