G04 #@! TF.FileFunction,Paste,Top*
%FSLAX46Y46*%
G04 Gerber Fmt 4.6, Leading zero omitted, Abs format (unit mm)*
G04 Created by KiCad (PCBNEW (2016-03-20 BZR 6634, Git a4ba01f)-product) date 4/5/2016 10:18:16 AM*
%MOMM*%
G01*
G04 APERTURE LIST*
%ADD10C,0.100000*%
%ADD11R,1.250000X1.000000*%
%ADD12R,1.600000X1.000000*%
%ADD13R,0.750000X0.800000*%
%ADD14R,0.550000X0.400000*%
%ADD15R,0.400000X0.550000*%
%ADD16R,1.005000X1.005000*%
%ADD17R,2.430000X2.370000*%
G04 APERTURE END LIST*
D10*
D11*
X144700000Y-88700000D03*
X144700000Y-90700000D03*
X142600000Y-88700000D03*
X142600000Y-90700000D03*
X140500000Y-88700000D03*
X140500000Y-90700000D03*
X138400000Y-88700000D03*
X138400000Y-90700000D03*
X136300000Y-88700000D03*
X136300000Y-90700000D03*
D12*
X154300000Y-87400000D03*
X154300000Y-90400000D03*
D13*
X152300000Y-87850000D03*
X152300000Y-89350000D03*
D14*
X146350000Y-86575000D03*
X146350000Y-87225000D03*
X146350000Y-87875000D03*
X146350000Y-88525000D03*
X146350000Y-89175000D03*
D15*
X147300000Y-90125000D03*
X147950000Y-90125000D03*
X148600000Y-90125000D03*
X149250000Y-90125000D03*
X149900000Y-90125000D03*
D14*
X150850000Y-89175000D03*
X150850000Y-88525000D03*
X150850000Y-87875000D03*
X150850000Y-87225000D03*
X150850000Y-86575000D03*
D15*
X149900000Y-85625000D03*
X149250000Y-85625000D03*
X148600000Y-85625000D03*
X147950000Y-85625000D03*
X147300000Y-85625000D03*
D16*
X149437500Y-88712500D03*
X149437500Y-87037500D03*
X147762500Y-88712500D03*
X147762500Y-87037500D03*
D17*
X158200000Y-93520000D03*
X158200000Y-87280000D03*
M02*
