G04 #@! TF.FileFunction,Paste,Bot*
%FSLAX46Y46*%
G04 Gerber Fmt 4.6, Leading zero omitted, Abs format (unit mm)*
G04 Created by KiCad (PCBNEW (2016-03-20 BZR 6634, Git a4ba01f)-product) date 4/5/2016 10:18:16 AM*
%MOMM*%
G01*
G04 APERTURE LIST*
%ADD10C,0.100000*%
%ADD11R,0.750000X0.800000*%
%ADD12R,1.600000X1.000000*%
%ADD13R,1.250000X1.000000*%
%ADD14R,1.300000X0.700000*%
%ADD15R,0.900000X0.500000*%
%ADD16R,0.550000X0.400000*%
%ADD17R,0.400000X0.550000*%
%ADD18R,1.005000X1.005000*%
%ADD19R,2.430000X2.370000*%
G04 APERTURE END LIST*
D10*
D11*
X145800000Y-95050000D03*
X145800000Y-93550000D03*
D12*
X155100000Y-93900000D03*
X155100000Y-90900000D03*
D13*
X141500000Y-93425000D03*
X141500000Y-91425000D03*
X139400000Y-93425000D03*
X139400000Y-91425000D03*
X137300000Y-93425000D03*
X137300000Y-91425000D03*
X135200000Y-93425000D03*
X135200000Y-91425000D03*
X133100000Y-93425000D03*
X133100000Y-91425000D03*
D11*
X153100000Y-94050000D03*
X153100000Y-92550000D03*
D14*
X143900000Y-95750000D03*
X143900000Y-93850000D03*
D15*
X143800000Y-92550000D03*
X143800000Y-91050000D03*
D16*
X147200000Y-94850000D03*
X147200000Y-94200000D03*
X147200000Y-93550000D03*
X147200000Y-92900000D03*
X147200000Y-92250000D03*
D17*
X148150000Y-91300000D03*
X148800000Y-91300000D03*
X149450000Y-91300000D03*
X150100000Y-91300000D03*
X150750000Y-91300000D03*
D16*
X151700000Y-92250000D03*
X151700000Y-92900000D03*
X151700000Y-93550000D03*
X151700000Y-94200000D03*
X151700000Y-94850000D03*
D17*
X150750000Y-95800000D03*
X150100000Y-95800000D03*
X149450000Y-95800000D03*
X148800000Y-95800000D03*
X148150000Y-95800000D03*
D18*
X150287500Y-92712500D03*
X150287500Y-94387500D03*
X148612500Y-92712500D03*
X148612500Y-94387500D03*
D19*
X159000000Y-94220000D03*
X159000000Y-87980000D03*
M02*
