G04 #@! TF.FileFunction,Legend,Top*
%FSLAX46Y46*%
G04 Gerber Fmt 4.6, Leading zero omitted, Abs format (unit mm)*
G04 Created by KiCad (PCBNEW (2016-03-20 BZR 6634, Git a4ba01f)-product) date 4/5/2016 10:18:16 AM*
%MOMM*%
G01*
G04 APERTURE LIST*
%ADD10C,0.100000*%
%ADD11C,0.300000*%
%ADD12C,0.150000*%
G04 APERTURE END LIST*
D10*
D11*
X157628572Y-84807143D02*
X158771429Y-84807143D01*
X158200000Y-85378571D02*
X158200000Y-84235714D01*
D10*
X131461905Y-90640476D02*
X131938095Y-90640476D01*
X131557143Y-90783333D02*
X131842857Y-90783333D01*
X131700000Y-90426190D02*
X131700000Y-90640476D01*
X131747619Y-90926190D02*
X131652381Y-90926190D01*
X131419048Y-93335714D02*
X131800000Y-93335714D01*
X131966667Y-93026190D02*
X132133334Y-93526190D01*
X132300000Y-93026190D01*
X132538095Y-93526190D02*
X132490476Y-93502381D01*
X132466667Y-93478571D01*
X132442857Y-93430952D01*
X132442857Y-93288095D01*
X132466667Y-93240476D01*
X132490476Y-93216667D01*
X132538095Y-93192857D01*
X132609524Y-93192857D01*
X132657143Y-93216667D01*
X132680952Y-93240476D01*
X132704762Y-93288095D01*
X132704762Y-93430952D01*
X132680952Y-93478571D01*
X132657143Y-93502381D01*
X132609524Y-93526190D01*
X132538095Y-93526190D01*
X133133333Y-93192857D02*
X133133333Y-93526190D01*
X132919048Y-93192857D02*
X132919048Y-93454762D01*
X132942857Y-93502381D01*
X132990476Y-93526190D01*
X133061905Y-93526190D01*
X133109524Y-93502381D01*
X133133333Y-93478571D01*
X133300000Y-93192857D02*
X133490476Y-93192857D01*
X133371429Y-93026190D02*
X133371429Y-93454762D01*
X133395238Y-93502381D01*
X133442857Y-93526190D01*
X133490476Y-93526190D01*
X131419048Y-88435714D02*
X131800000Y-88435714D01*
X131609524Y-88626190D02*
X131609524Y-88245238D01*
X131966667Y-88126190D02*
X132133334Y-88626190D01*
X132300000Y-88126190D01*
X132538095Y-88626190D02*
X132490476Y-88602381D01*
X132466667Y-88578571D01*
X132442857Y-88530952D01*
X132442857Y-88388095D01*
X132466667Y-88340476D01*
X132490476Y-88316667D01*
X132538095Y-88292857D01*
X132609524Y-88292857D01*
X132657143Y-88316667D01*
X132680952Y-88340476D01*
X132704762Y-88388095D01*
X132704762Y-88530952D01*
X132680952Y-88578571D01*
X132657143Y-88602381D01*
X132609524Y-88626190D01*
X132538095Y-88626190D01*
X133133333Y-88292857D02*
X133133333Y-88626190D01*
X132919048Y-88292857D02*
X132919048Y-88554762D01*
X132942857Y-88602381D01*
X132990476Y-88626190D01*
X133061905Y-88626190D01*
X133109524Y-88602381D01*
X133133333Y-88578571D01*
X133300000Y-88292857D02*
X133490476Y-88292857D01*
X133371429Y-88126190D02*
X133371429Y-88554762D01*
X133395238Y-88602381D01*
X133442857Y-88626190D01*
X133490476Y-88626190D01*
X160850001Y-88335714D02*
X161230953Y-88335714D01*
X161040477Y-88526190D02*
X161040477Y-88145238D01*
X161397620Y-88026190D02*
X161564287Y-88526190D01*
X161730953Y-88026190D01*
X161897620Y-88526190D02*
X161897620Y-88192857D01*
X161897620Y-88026190D02*
X161873810Y-88050000D01*
X161897620Y-88073810D01*
X161921429Y-88050000D01*
X161897620Y-88026190D01*
X161897620Y-88073810D01*
X162135715Y-88192857D02*
X162135715Y-88526190D01*
X162135715Y-88240476D02*
X162159524Y-88216667D01*
X162207143Y-88192857D01*
X162278572Y-88192857D01*
X162326191Y-88216667D01*
X162350000Y-88264286D01*
X162350000Y-88526190D01*
X161461905Y-90840476D02*
X161938095Y-90840476D01*
X161557143Y-90983333D02*
X161842857Y-90983333D01*
X161700000Y-90626190D02*
X161700000Y-90840476D01*
X161747619Y-91126190D02*
X161652381Y-91126190D01*
X160850001Y-93335714D02*
X161230953Y-93335714D01*
X161397620Y-93026190D02*
X161564287Y-93526190D01*
X161730953Y-93026190D01*
X161897620Y-93526190D02*
X161897620Y-93192857D01*
X161897620Y-93026190D02*
X161873810Y-93050000D01*
X161897620Y-93073810D01*
X161921429Y-93050000D01*
X161897620Y-93026190D01*
X161897620Y-93073810D01*
X162135715Y-93192857D02*
X162135715Y-93526190D01*
X162135715Y-93240476D02*
X162159524Y-93216667D01*
X162207143Y-93192857D01*
X162278572Y-93192857D01*
X162326191Y-93216667D01*
X162350000Y-93264286D01*
X162350000Y-93526190D01*
D12*
X145550000Y-90200000D02*
X145550000Y-89200000D01*
X143850000Y-89200000D02*
X143850000Y-90200000D01*
X143450000Y-90200000D02*
X143450000Y-89200000D01*
X141750000Y-89200000D02*
X141750000Y-90200000D01*
X141350000Y-90200000D02*
X141350000Y-89200000D01*
X139650000Y-89200000D02*
X139650000Y-90200000D01*
X139250000Y-90200000D02*
X139250000Y-89200000D01*
X137550000Y-89200000D02*
X137550000Y-90200000D01*
X137150000Y-90200000D02*
X137150000Y-89200000D01*
X135450000Y-89200000D02*
X135450000Y-90200000D01*
X165750000Y-88300000D02*
X165750000Y-86750000D01*
X165750000Y-86750000D02*
X162650000Y-86750000D01*
X162650000Y-86750000D02*
X162650000Y-88300000D01*
X165470000Y-89570000D02*
X165470000Y-94650000D01*
X165470000Y-94650000D02*
X162930000Y-94650000D01*
X162930000Y-94650000D02*
X162930000Y-89570000D01*
X162930000Y-89570000D02*
X165470000Y-89570000D01*
X155325000Y-89900000D02*
X155325000Y-87900000D01*
X153275000Y-87900000D02*
X153275000Y-89900000D01*
X152900000Y-88250000D02*
X152900000Y-88950000D01*
X151700000Y-88950000D02*
X151700000Y-88250000D01*
X151250000Y-85225000D02*
X151250000Y-86150000D01*
X145950000Y-90525000D02*
X145950000Y-89600000D01*
X151250000Y-90525000D02*
X151250000Y-89600000D01*
X145950000Y-85225000D02*
X146875000Y-85225000D01*
X145950000Y-90525000D02*
X146875000Y-90525000D01*
X151250000Y-90525000D02*
X150325000Y-90525000D01*
X151250000Y-85225000D02*
X150325000Y-85225000D01*
X156000000Y-86200000D02*
X156000000Y-94200000D01*
X160400000Y-94200000D02*
X160400000Y-86100000D01*
X124250000Y-93400000D02*
X124250000Y-94950000D01*
X124250000Y-94950000D02*
X127350000Y-94950000D01*
X127350000Y-94950000D02*
X127350000Y-93400000D01*
X124530000Y-92130000D02*
X124530000Y-87050000D01*
X124530000Y-87050000D02*
X127070000Y-87050000D01*
X127070000Y-87050000D02*
X127070000Y-92130000D01*
X127070000Y-92130000D02*
X124530000Y-92130000D01*
X127750000Y-93400000D02*
X127750000Y-94950000D01*
X127750000Y-94950000D02*
X130850000Y-94950000D01*
X130850000Y-94950000D02*
X130850000Y-93400000D01*
X128030000Y-92130000D02*
X128030000Y-87050000D01*
X128030000Y-87050000D02*
X130570000Y-87050000D01*
X130570000Y-87050000D02*
X130570000Y-92130000D01*
X130570000Y-92130000D02*
X128030000Y-92130000D01*
X125286000Y-99000000D02*
G75*
G03X125286000Y-99000000I-2286000J0D01*
G01*
X125286000Y-83000000D02*
G75*
G03X125286000Y-83000000I-2286000J0D01*
G01*
X165286000Y-99000000D02*
G75*
G03X165286000Y-99000000I-2286000J0D01*
G01*
X165286000Y-83000000D02*
G75*
G03X165286000Y-83000000I-2286000J0D01*
G01*
X120750000Y-93400000D02*
X120750000Y-94950000D01*
X120750000Y-94950000D02*
X123850000Y-94950000D01*
X123850000Y-94950000D02*
X123850000Y-93400000D01*
X121030000Y-92130000D02*
X121030000Y-87050000D01*
X121030000Y-87050000D02*
X123570000Y-87050000D01*
X123570000Y-87050000D02*
X123570000Y-92130000D01*
X123570000Y-92130000D02*
X121030000Y-92130000D01*
M02*
