G04 #@! TF.FileFunction,Soldermask,Bot*
%FSLAX46Y46*%
G04 Gerber Fmt 4.6, Leading zero omitted, Abs format (unit mm)*
G04 Created by KiCad (PCBNEW (2016-03-20 BZR 6634, Git a4ba01f)-product) date 4/5/2016 10:18:16 AM*
%MOMM*%
G01*
G04 APERTURE LIST*
%ADD10C,0.100000*%
%ADD11R,2.432000X2.127200*%
%ADD12O,2.432000X2.127200*%
%ADD13R,1.150000X1.200000*%
%ADD14R,2.000000X1.400000*%
%ADD15R,1.650000X1.400000*%
%ADD16R,1.700000X1.100000*%
%ADD17R,1.300000X0.900000*%
%ADD18R,0.950000X0.800000*%
%ADD19R,0.800000X0.950000*%
%ADD20R,2.075000X2.075000*%
%ADD21R,2.830000X2.770000*%
%ADD22C,4.464000*%
G04 APERTURE END LIST*
D10*
D11*
X164200000Y-88300000D03*
D12*
X164200000Y-90840000D03*
X164200000Y-93380000D03*
D13*
X145800000Y-95050000D03*
X145800000Y-93550000D03*
D14*
X155100000Y-93900000D03*
X155100000Y-90900000D03*
D15*
X141500000Y-93425000D03*
X141500000Y-91425000D03*
X139400000Y-93425000D03*
X139400000Y-91425000D03*
X137300000Y-93425000D03*
X137300000Y-91425000D03*
X135200000Y-93425000D03*
X135200000Y-91425000D03*
X133100000Y-93425000D03*
X133100000Y-91425000D03*
D13*
X153100000Y-94050000D03*
X153100000Y-92550000D03*
D16*
X143900000Y-95750000D03*
X143900000Y-93850000D03*
D17*
X143800000Y-92550000D03*
X143800000Y-91050000D03*
D18*
X147200000Y-94850000D03*
X147200000Y-94200000D03*
X147200000Y-93550000D03*
X147200000Y-92900000D03*
X147200000Y-92250000D03*
D19*
X148150000Y-91300000D03*
X148800000Y-91300000D03*
X149450000Y-91300000D03*
X150100000Y-91300000D03*
X150750000Y-91300000D03*
D18*
X151700000Y-92250000D03*
X151700000Y-92900000D03*
X151700000Y-93550000D03*
X151700000Y-94200000D03*
X151700000Y-94850000D03*
D19*
X150750000Y-95800000D03*
X150100000Y-95800000D03*
X149450000Y-95800000D03*
X148800000Y-95800000D03*
X148150000Y-95800000D03*
D20*
X150287500Y-92712500D03*
X150287500Y-94387500D03*
X148612500Y-92712500D03*
X148612500Y-94387500D03*
D21*
X159000000Y-94220000D03*
X159000000Y-87980000D03*
D11*
X125800000Y-93400000D03*
D12*
X125800000Y-90860000D03*
X125800000Y-88320000D03*
D11*
X129300000Y-93400000D03*
D12*
X129300000Y-90860000D03*
X129300000Y-88320000D03*
D22*
X123000000Y-99000000D03*
X123000000Y-83000000D03*
X163000000Y-99000000D03*
X163000000Y-83000000D03*
D11*
X122300000Y-93400000D03*
D12*
X122300000Y-90860000D03*
X122300000Y-88320000D03*
M02*
