G04 #@! TF.FileFunction,Soldermask,Top*
%FSLAX46Y46*%
G04 Gerber Fmt 4.6, Leading zero omitted, Abs format (unit mm)*
G04 Created by KiCad (PCBNEW (2016-03-20 BZR 6634, Git a4ba01f)-product) date 4/5/2016 10:18:16 AM*
%MOMM*%
G01*
G04 APERTURE LIST*
%ADD10C,0.100000*%
%ADD11R,1.650000X1.400000*%
%ADD12R,2.432000X2.127200*%
%ADD13O,2.432000X2.127200*%
%ADD14R,2.000000X1.400000*%
%ADD15R,1.150000X1.200000*%
%ADD16R,0.950000X0.800000*%
%ADD17R,0.800000X0.950000*%
%ADD18R,2.075000X2.075000*%
%ADD19R,2.830000X2.770000*%
%ADD20C,4.464000*%
G04 APERTURE END LIST*
D10*
D11*
X144700000Y-88700000D03*
X144700000Y-90700000D03*
X142600000Y-88700000D03*
X142600000Y-90700000D03*
X140500000Y-88700000D03*
X140500000Y-90700000D03*
X138400000Y-88700000D03*
X138400000Y-90700000D03*
X136300000Y-88700000D03*
X136300000Y-90700000D03*
D12*
X164200000Y-88300000D03*
D13*
X164200000Y-90840000D03*
X164200000Y-93380000D03*
D14*
X154300000Y-87400000D03*
X154300000Y-90400000D03*
D15*
X152300000Y-87850000D03*
X152300000Y-89350000D03*
D16*
X146350000Y-86575000D03*
X146350000Y-87225000D03*
X146350000Y-87875000D03*
X146350000Y-88525000D03*
X146350000Y-89175000D03*
D17*
X147300000Y-90125000D03*
X147950000Y-90125000D03*
X148600000Y-90125000D03*
X149250000Y-90125000D03*
X149900000Y-90125000D03*
D16*
X150850000Y-89175000D03*
X150850000Y-88525000D03*
X150850000Y-87875000D03*
X150850000Y-87225000D03*
X150850000Y-86575000D03*
D17*
X149900000Y-85625000D03*
X149250000Y-85625000D03*
X148600000Y-85625000D03*
X147950000Y-85625000D03*
X147300000Y-85625000D03*
D18*
X149437500Y-88712500D03*
X149437500Y-87037500D03*
X147762500Y-88712500D03*
X147762500Y-87037500D03*
D19*
X158200000Y-93520000D03*
X158200000Y-87280000D03*
D12*
X125800000Y-93400000D03*
D13*
X125800000Y-90860000D03*
X125800000Y-88320000D03*
D12*
X129300000Y-93400000D03*
D13*
X129300000Y-90860000D03*
X129300000Y-88320000D03*
D20*
X123000000Y-99000000D03*
X123000000Y-83000000D03*
X163000000Y-99000000D03*
X163000000Y-83000000D03*
D12*
X122300000Y-93400000D03*
D13*
X122300000Y-90860000D03*
X122300000Y-88320000D03*
M02*
